<?xml version="1.0" encoding="UTF-8"?>
<svg id="Layer_2" data-name="Layer 2" xmlns="http://www.w3.org/2000/svg" viewBox="0 0 278.179 50.37">
  <g id="Layer_1-2" data-name="Layer 1">
    <g>
      <g>
        <path d="M84.015,31.533c0-10.351,6.624-18.769,17.25-18.769,10.695,0,17.181,8.418,17.181,18.769s-6.486,18.768-17.181,18.768c-10.626,0-17.25-8.418-17.25-18.768ZM112.719,31.533c0-7.866-3.864-14.146-11.454-14.146s-11.523,6.279-11.523,14.146,3.933,14.076,11.523,14.076,11.454-6.21,11.454-14.076Z"/>
        <path d="M168.4,41.86c0,2.48,1.31,3.31,3.59,3.31,1.1,0,2.34-.27,2.97-.48h.2v4.83c-1.31.27-2.83.48-4.48.48-4.56,0-7.87-1.86-7.87-6.9v-24.88h-5.17v-4.56h5.17V2.42h5.59v11.24h6.9v4.56h-6.9v23.64Z"/>
        <path d="M244.852,31.533c0-10.351,6.762-18.769,16.905-18.769,10.695,0,16.422,8.28,16.422,20.079h-27.6c.413,7.245,4.347,12.766,11.522,12.766,5.175,0,8.625-2.484,9.867-7.314h5.451c-1.656,7.659-7.245,12.006-15.318,12.006-10.902,0-17.25-8.418-17.25-18.768ZM250.717,28.635h21.459c-.345-7.106-4.002-11.454-10.419-11.454-6.624,0-10.212,4.968-11.04,11.454Z"/>
      </g>
      <path d="M65.25,12.83c-5.18,0-8.77,2.28-11.46,5.94h-.13V0h-5.59v50h5.59v-5.36h.13c2.9,4,6.42,5.73,11.25,5.73,9.66,0,15.39-7.31,15.39-18.77,0-11.87-6.14-18.77-15.18-18.77ZM64.63,45.68c-7.59,0-11.32-6.01-11.32-14.01,0-7.73,3.59-14.08,11.39-14.08,6.76,0,10,6.08,10,14.08,0,8.07-3.24,14.01-10.07,14.01Z"/>
      <path d="M43.58,49.33l-2.31-6.27L25.37,0h-6.97L3.15,41.44l-2.9,7.89-.25.67h6.36l.24-.67,2.4-6.8,2.91-8.24h19.67l3.48,9.98,1.76,5.06.23.67h6.78l-.25-.67ZM13.71,29.26l5.86-16.56c.97-2.83,2.28-6.97,2.28-6.97h.14s1.24,4.21,2.2,6.97l5.66,16.56H13.71Z"/>
      <path d="M239.47,24.29v25.71h-5.59v-25.44c0-4.41-2.96-7.03-6.55-7.03-4.63,0-8.77,4-8.77,9.59v22.88h-5.59v-25.44c0-4.41-2.48-7.03-6.14-7.03-4.34,0-9.17,4-9.17,9.59v22.88h-5.59V13.66h5.59v5.11h.13c2.21-3.45,6.01-5.94,10.49-5.94,4.35,0,7.8,2.21,9.32,6.35h.14c2.27-4.07,6.55-6.35,10.9-6.35,6.35,0,10.83,4.08,10.83,11.46Z"/>
      <path d="M152.33,13.66v36.34h-5.59v-5.56h-.14c-2.56,3.45-5.59,5.72-10.77,5.72-7.31,0-12-4.41-12-11.8V13.66h5.59v24.57c0,4.62,2.96,7.31,8,7.31,5.66,0,9.32-4.28,9.32-9.94V13.66h5.59Z"/>
    </g>
  </g>
</svg>