<?xml version="1.0" encoding="UTF-8"?>
<svg id="Layer_2" data-name="Layer 2" xmlns="http://www.w3.org/2000/svg" viewBox="0 0 270.404 49.007">
  <g id="Layer_1-2" data-name="Layer 1">
    <g>
      <path d="M17.656,0h6.78l17.724,48h-6.579l-5.102-14.635H11.345l-5.17,14.635H0L17.656,0ZM13.09,28.464h15.709l-5.505-16.112c-.94-2.685-2.148-6.781-2.148-6.781h-.134s-1.276,4.028-2.216,6.781l-5.706,16.112Z"/>
      <path d="M52.094,43.435h-.134v4.565h-5.438V0h5.438v18.26h.134c2.618-3.558,6.109-5.774,11.144-5.774,8.795,0,14.769,6.714,14.769,18.26,0,11.145-5.572,18.26-14.971,18.26-4.699,0-8.123-1.678-10.942-5.572ZM72.435,30.814c0-7.787-3.155-13.695-9.734-13.695-7.586,0-11.077,6.176-11.077,13.695,0,7.787,3.625,13.628,11.01,13.628,6.646,0,9.801-5.773,9.801-13.628Z"/>
      <path d="M81.497,30.68c0-10.07,6.445-18.26,16.783-18.26,10.405,0,16.716,8.19,16.716,18.26s-6.311,18.26-16.716,18.26c-10.338,0-16.783-8.191-16.783-18.26ZM109.425,30.68c0-7.653-3.76-13.762-11.145-13.762s-11.211,6.109-11.211,13.762,3.827,13.695,11.211,13.695,11.145-6.042,11.145-13.695Z"/>
      <path d="M142.52,48v-4.766h-.134c-2.484,3.357-5.438,5.572-10.473,5.572-7.116,0-11.681-4.297-11.681-11.48V13.292h5.438v23.899c0,4.498,2.887,7.116,7.787,7.116,5.505,0,9.063-4.162,9.063-9.667V13.292h5.438v34.708h-5.438Z"/>
      <path d="M153.125,13.292h5.036V2.35h5.437v10.942h6.713v4.431h-6.713v22.557c0,2.417,1.276,3.222,3.491,3.222,1.074,0,2.282-.268,2.887-.47h.201v4.7c-1.275.268-2.752.47-4.363.47-4.431,0-7.653-1.813-7.653-6.714v-23.765h-5.036v-4.431Z"/>
      <path d="M186.624,13.292h5.438v4.968h.134c2.148-3.357,5.841-5.774,10.204-5.774,4.23,0,7.586,2.148,9.063,6.176h.134c2.216-3.961,6.378-6.176,10.607-6.176,6.176,0,10.54,3.961,10.54,11.145v24.369h-5.437v-24.101c0-4.297-2.887-6.847-6.378-6.847-4.497,0-8.526,3.893-8.526,9.331v21.617h-5.438v-24.101c0-4.297-2.417-6.847-5.975-6.847-4.229,0-8.928,3.893-8.928,9.331v21.617h-5.438V13.292Z"/>
      <path d="M237.98,30.68c0-10.07,6.579-18.26,16.447-18.26,10.406,0,15.978,8.056,15.978,19.536h-26.853c.403,7.049,4.23,12.42,11.211,12.42,5.035,0,8.392-2.417,9.6-7.116h5.303c-1.611,7.451-7.049,11.681-14.904,11.681-10.607,0-16.783-8.191-16.783-18.26ZM243.685,27.86h20.878c-.335-6.915-3.893-11.144-10.137-11.144-6.445,0-9.935,4.833-10.741,11.144Z"/>
    </g>
  </g>
</svg>