<?xml version="1.0" encoding="UTF-8"?>
<svg id="Layer_2" data-name="Layer 2" xmlns="http://www.w3.org/2000/svg" viewBox="0 0 470.049 59.547">
  <g id="Layer_1-2" data-name="Layer 1">
    <g>
      <path d="M0,.403h32.559v5.303H6.041v14.971h22.087v5.102H6.041v22.624H0V.403Z"/>
      <path d="M37.996.403h5.438v6.713h-5.438V.403ZM37.996,13.695h5.438v34.708h-5.438V13.695Z"/>
      <path d="M51.019.403h5.437v48h-5.437V.403Z"/>
      <path d="M64.244.403h5.437v48h-5.437V.403Z"/>
      <path d="M88.142.403h5.437v48h-5.437V.403Z"/>
      <path d="M101.165.403h5.437v6.713h-5.437V.403ZM101.165,13.695h5.437v34.708h-5.437V13.695Z"/>
      <path d="M111.771,37.125h5.572c.738,6.041,4.766,7.72,9.935,7.72,5.706,0,8.056-2.484,8.056-5.706,0-3.893-2.686-4.901-9.063-6.243-6.847-1.41-12.957-2.82-12.957-10.405,0-5.774,4.431-9.533,12.487-9.533,8.593,0,12.822,4.095,13.628,10.875h-5.572c-.537-4.565-3.021-6.579-8.19-6.579-4.968,0-6.982,2.216-6.982,4.968,0,3.759,3.357,4.497,9.332,5.706,6.981,1.41,12.822,2.954,12.822,10.943,0,6.982-5.706,10.54-13.695,10.54-9.533,0-14.836-4.497-15.374-12.285Z"/>
      <path d="M143.189,13.695h5.036V2.753h5.437v10.942h6.713v4.431h-6.713v22.557c0,2.417,1.276,3.222,3.491,3.222,1.074,0,2.282-.268,2.887-.47h.201v4.7c-1.275.268-2.752.47-4.363.47-4.431,0-7.653-1.813-7.653-6.714v-23.765h-5.036v-4.431Z"/>
      <path d="M174.74,31.083c0-10.07,6.445-18.26,16.783-18.26,10.405,0,16.716,8.19,16.716,18.26s-6.311,18.26-16.716,18.26c-10.338,0-16.783-8.191-16.783-18.26ZM202.668,31.083c0-7.653-3.76-13.762-11.145-13.762s-11.211,6.109-11.211,13.762,3.827,13.695,11.211,13.695,11.145-6.042,11.145-13.695Z"/>
      <path d="M210.79,13.695h4.766v-5.572c0-5.975,3.424-8.123,9.197-8.123,1.142,0,2.014.067,2.752.135v4.632c-.939-.067-1.208-.067-1.745-.067-3.491,0-4.766.872-4.766,3.692v5.303h6.445v4.431h-6.445v30.277h-5.438v-30.277h-4.766v-4.431Z"/>
      <path d="M243.416,13.695h5.438v4.901h.134c2.618-3.558,6.109-5.706,11.144-5.706,8.795,0,14.904,6.714,14.904,18.26,0,11.145-5.706,18.26-15.105,18.26-4.699,0-8.056-1.409-10.942-5.102h-.134v15.239h-5.438V13.695ZM269.463,31.217c0-7.787-3.289-13.695-9.868-13.695-7.586,0-11.077,6.176-11.077,13.695s3.021,13.628,11.01,13.628c6.646,0,9.935-5.773,9.935-13.628Z"/>
      <path d="M285.909,19.469h.134c2.081-3.357,5.706-6.176,10.338-6.176,1.007,0,1.544.134,2.216.403v5.236h-.202c-.806-.268-1.342-.336-2.417-.336-5.371,0-10.07,4.028-10.07,10.54v19.267h-5.438V13.695h5.438v5.774Z"/>
      <path d="M300.209,31.083c0-10.07,6.445-18.26,16.783-18.26,10.405,0,16.716,8.19,16.716,18.26s-6.311,18.26-16.716,18.26c-10.338,0-16.783-8.191-16.783-18.26ZM328.136,31.083c0-7.653-3.76-13.762-11.145-13.762s-11.211,6.109-11.211,13.762,3.827,13.695,11.211,13.695,11.145-6.042,11.145-13.695Z"/>
      <path d="M333.572,58.003v-4.431h.134c.672.134,1.276.202,1.88.202,2.35,0,3.558-1.007,3.558-3.357V13.695h5.438v36.99c0,6.445-3.558,7.586-7.989,7.586-1.209,0-2.148-.134-3.022-.269ZM339.144.403h5.438v6.713h-5.438V.403Z"/>
      <path d="M350.019,31.083c0-10.07,6.579-18.26,16.447-18.26,10.406,0,15.978,8.056,15.978,19.536h-26.853c.403,7.049,4.23,12.42,11.212,12.42,5.035,0,8.391-2.417,9.6-7.116h5.303c-1.612,7.451-7.048,11.681-14.903,11.681-10.608,0-16.784-8.191-16.784-18.26ZM355.725,28.263h20.879c-.337-6.915-3.895-11.144-10.138-11.144-6.445,0-9.935,4.833-10.741,11.144Z"/>
      <path d="M385.799,31.083c0-10.07,6.445-18.26,16.784-18.26,8.19,0,13.628,4.699,14.836,12.084h-5.505c-.807-4.699-4.095-7.586-9.331-7.586-7.385,0-11.211,6.109-11.211,13.762s3.827,13.695,11.211,13.695c5.638,0,8.995-3.222,9.465-8.593h5.371c-.738,8.324-6.176,13.158-14.836,13.158-10.34,0-16.784-8.191-16.784-18.26Z"/>
      <path d="M420.373,13.695h5.035V2.753h5.438v10.942h6.713v4.431h-6.713v22.557c0,2.417,1.275,3.222,3.491,3.222,1.073,0,2.282-.268,2.887-.47h.202v4.7c-1.277.268-2.753.47-4.365.47-4.43,0-7.653-1.813-7.653-6.714v-23.765h-5.035v-4.431Z"/>
      <path d="M440.981,37.125h5.573c.738,6.041,4.766,7.72,9.934,7.72,5.706,0,8.056-2.484,8.056-5.706,0-3.893-2.685-4.901-9.063-6.243-6.847-1.41-12.955-2.82-12.955-10.405,0-5.774,4.43-9.533,12.485-9.533,8.593,0,12.823,4.095,13.628,10.875h-5.572c-.538-4.565-3.022-6.579-8.191-6.579-4.966,0-6.981,2.216-6.981,4.968,0,3.759,3.357,4.497,9.331,5.706,6.983,1.41,12.823,2.954,12.823,10.943,0,6.982-5.706,10.54-13.695,10.54-9.532,0-14.837-4.497-15.374-12.285Z"/>
    </g>
  </g>
</svg>