<?xml version="1.0" encoding="UTF-8"?>
<svg id="Layer_2" data-name="Layer 2" xmlns="http://www.w3.org/2000/svg" viewBox="0 0 481.875 50">
  <g id="Layer_1-2" data-name="Layer 1">
    <g>
      <path d="M0,.408h20.584c5.095,0,8.967,1.387,11.684,4.301,1.97,2.081,3.125,4.924,3.125,8.462,0,5.479-2.989,8.878-7.813,10.404v.209c5.503,1.318,9.783,5.341,9.783,11.999,0,3.815-1.291,7.075-3.532,9.502-2.718,2.983-6.929,4.717-12.16,4.717H0V.408ZM19.837,21.632c5.91,0,9.443-2.983,9.443-8.115,0-4.786-3.193-7.7-8.628-7.7H6.114v15.814h13.723ZM21.399,44.382c3.465,0,5.978-.902,7.609-2.496,1.359-1.457,2.174-3.399,2.174-5.757,0-6.173-4.28-9.225-10.19-9.225H6.114v17.478h15.285Z"/>
      <path d="M48.433,19.702h.136c2.106-3.397,5.775-6.251,10.462-6.251,1.019,0,1.562.137,2.242.408v5.299h-.204c-.815-.271-1.359-.339-2.446-.339-5.435,0-10.19,4.076-10.19,10.665v20.516h-5.503V13.859h5.503v5.843Z"/>
      <path d="M66.228.408h5.503v6.794h-5.503V.408ZM66.228,13.859h5.503v36.141h-5.503V13.859Z"/>
      <path d="M77.232,31.488c0-10.209,6.658-18.513,16.644-18.513,10.53,0,16.168,8.167,16.168,19.806h-27.174c.408,7.146,4.28,12.591,11.345,12.591,5.095,0,8.492-2.45,9.715-7.215h5.367c-1.631,7.554-7.133,11.842-15.082,11.842-10.734,0-16.984-8.303-16.984-18.512ZM83.007,28.629h21.128c-.34-7.01-3.94-11.298-10.258-11.298-6.522,0-10.055,4.9-10.87,11.298Z"/>
      <path d="M112.486,13.859h4.823v-5.639c0-6.046,3.465-8.22,9.307-8.22,1.155,0,2.038.069,2.786.137v4.687c-.951-.068-1.223-.068-1.766-.068-3.532,0-4.823.883-4.823,3.737v5.367h6.522v4.484h-6.522v31.657h-5.503v-31.657h-4.823v-4.484Z"/>
      <path d="M145.499.408h5.502v6.794h-5.502V.408ZM145.499,13.859h5.502v36.141h-5.502V13.859Z"/>
      <path d="M163.975,18.479h.137c2.513-3.329,6.045-5.435,11.141-5.435,7.337,0,11.82,4.009,11.82,11.277v25.679h-5.502v-25.204c0-4.551-2.989-7.133-7.949-7.133-5.57,0-9.647,3.94-9.647,9.714v22.622h-5.502V13.859h5.502v4.62Z"/>
      <path d="M191.417,14.053h5.095V2.786h5.503v11.267h6.793v4.563h-6.793v23.227c0,2.489,1.291,3.319,3.532,3.319,1.086,0,2.309-.277,2.921-.485h.203v4.839c-1.291.277-2.785.484-4.416.484-4.483,0-7.745-1.866-7.745-6.912v-24.471h-5.095v-4.563Z"/>
      <path d="M220.014,19.702h.137c2.105-3.397,5.774-6.251,10.462-6.251,1.019,0,1.562.137,2.242.408v5.299h-.204c-.815-.271-1.359-.339-2.445-.339-5.435,0-10.191,4.076-10.191,10.665v20.516h-5.502V13.859h5.502v5.843Z"/>
      <path d="M234.482,31.454c0-10.191,6.522-18.479,16.984-18.479,10.53,0,16.916,8.288,16.916,18.479s-6.387,18.478-16.916,18.478c-10.462,0-16.984-8.288-16.984-18.478ZM262.743,31.454c0-7.745-3.805-13.927-11.277-13.927s-11.345,6.182-11.345,13.927,3.872,13.859,11.345,13.859,11.277-6.114,11.277-13.859Z"/>
      <path d="M271.911,31.522c0-11.685,6.726-18.479,15.422-18.479,4.959,0,8.763,2.446,11.005,5.775h.136V.408h5.503v49.592h-5.503v-5.299h-.136c-2.649,3.397-5.911,5.299-10.87,5.299-9.579,0-15.557-7.201-15.557-18.478ZM298.813,31.59c0-8.152-3.94-13.859-11.209-13.859-6.657,0-10.054,5.978-10.054,13.859,0,7.948,3.397,13.791,10.122,13.791,7.813,0,11.142-5.843,11.142-13.791Z"/>
      <path d="M333.795,50v-5.842h-.136c-2.514,3.397-5.503,5.639-10.598,5.639-7.201,0-11.82-4.348-11.82-11.617V13.859h5.503v24.185c0,4.551,2.921,7.201,7.88,7.201,5.571,0,9.171-4.211,9.171-9.782V13.859h5.503v36.141h-5.503Z"/>
      <path d="M344.797,31.454c0-10.191,6.522-18.479,16.984-18.479,8.288,0,13.791,4.755,15.014,12.228h-5.571c-.815-4.755-4.144-7.676-9.443-7.676-7.473,0-11.345,6.182-11.345,13.927s3.872,13.859,11.345,13.859c5.706,0,9.103-3.261,9.579-8.696h5.435c-.748,8.424-6.251,13.315-15.014,13.315-10.462,0-16.984-8.288-16.984-18.478Z"/>
      <path d="M379.779,14.037h5.095V2.786h5.503v11.251h6.793v4.557h-6.793v23.193c0,2.485,1.291,3.314,3.532,3.314,1.086,0,2.309-.276,2.921-.484h.203v4.832c-1.291.276-2.785.483-4.416.483-4.483,0-7.745-1.864-7.745-6.902v-24.436h-5.095v-4.557Z"/>
      <path d="M402.875,1.426h5.502v6.794h-5.502V1.426ZM402.875,14.878h5.502v35.122h-5.502V14.878Z"/>
      <path d="M413.878,31.454c0-10.191,6.522-18.479,16.984-18.479,10.53,0,16.916,8.288,16.916,18.479s-6.386,18.478-16.916,18.478c-10.462,0-16.984-8.288-16.984-18.478ZM442.139,31.454c0-7.745-3.805-13.927-11.277-13.927s-11.345,6.182-11.345,13.927,3.872,13.859,11.345,13.859,11.277-6.114,11.277-13.859Z"/>
      <path d="M458.778,18.479h.137c2.513-3.329,6.045-5.435,11.141-5.435,7.337,0,11.82,4.009,11.82,11.277v25.679h-5.502v-25.204c0-4.551-2.989-7.133-7.949-7.133-5.57,0-9.647,3.94-9.647,9.714v22.622h-5.502V13.859h5.502v4.62Z"/>
    </g>
  </g>
</svg>