<?xml version="1.0" encoding="UTF-8"?>
<svg id="Layer_2" xmlns="http://www.w3.org/2000/svg" viewBox="0 0 400 400">
  <defs>
    <style>
      .cls-1 {
        fill: none;
      }

      .cls-2 {
        fill: #bcfb0f;
      }
    </style>
  </defs>
  <g id="Layer_1_copy_2">
    <path class="cls-2" d="M366.166,38.83c-5.126-7.601-14.768-8.052-22.217-9.988-6.632-1.931-4.877-9.904-6.973-15.079-2.775-7.948-10.955-12.985-19.18-13.673-26.001-1.605-21.944,18.875-38.322,19.146-16.706-1.302-33.322-4.21-49.942-6.752-10.902-1.758-21.729-3.569-32.78-5.207-6.633-.988-13.4-1.647-20.083-.908-10.039,1.097-19.097,5.359-28.526,8.659-14.534,5.096-29.413,10.327-44.281,14.748-6.763,2.023-13.576,3.858-20.376,5.746-5.697,1.602-11.635,3.487-16.449,6.903-2.321,1.638-4.372,3.646-5.987,5.98-3.141,4.599-4.258,9.318-9.07,11.475-4.178,2.014-10.442,1.699-15.023,4.011-5.697,2.348-8.287,9.192-5.683,14.756,2.225,5.189,7.06,9.404,9.496,14.641,2.826,5.381,4.1,11.337,6.618,16.906,2.895,6.859,8.68,11.265,12.705,17.223,3.399,5.343,5.176,12.14,8.412,18.022,4.435,7.613,5.727,15.616,7.202,24.459,6.608,38.08,13.27,77.6,18.824,110.107,1.268,7.546,2.598,14.939,7.337,21.302,1.682,2.412,3.585,4.854,5.383,7.243,4.479,5.655,7.547,11.53,11.122,17.375,5.987,9.124,15.249,17.218,26.263,19.167,4.531.65,9.118-1.033,13.793-1.443,7.211-1.045,12.979,2.371,19.178,6.345,10.894,5.945,14.338,13.677,18.79,24.673,4.824,10.105,11.64,16.379,20.22,21.487,6.273,3.589,14.183,5.352,21.02,2.236,7.887-3.449,13.517-12.129,13.116-20.572-.518-8.988-3.409-17.839-4.122-26.756-.682-6.216,1.82-11.936,5.687-16.688,3.614-4.523,7.2-10.458,11.3-14.108,5.495-5.028,12.527-2.339,19.325-2.55,9.365-.413,18.064-7.136,19.894-16.429,1.354-6.016.216-13.205-1.595-19.4-1.234-4.205-2.385-8.365-2.603-12.712-.359-8.012,1.47-16.148,1.869-24.209,1.016-12.775,2.437-25.558,3.808-38.31,1.934-17.972,3.833-35.39,5.765-53.377.668-5.296.705-13.978,6.714-15.35,3.035-.74,5.964-.043,9.63.652,5.292,1.06,10.798,1.844,16.067.731,14.692-2.902,16.618-17.665,18.2-30.711.783-5.505,1.773-11.031,2.708-16.499,1.627-9.44,3.29-18.975,4.925-28.305,1.426-8.146,3.013-17.532-2.043-24.8l-.118-.168ZM196.833,323.806c-3.841-.133-9.061-2.601-9.608-6.764-.299-3.596,2.684-6.668,4.864-9.304,3.376-3.688,6.21-7.717,9.243-7.769,3.433.962,2.31,9.203,2.499,12.233-.08,4.934-1.067,11.58-6.799,11.605h-.198ZM129.206,258.801c-1.417.987-2.727,2.501-4.418,2.113-1.13-.48-1.311-3.187-1.96-6.964-.329-2.045-.652-4.01-.992-6.116-3.743-23.128-8.657-53.36-12.49-77.027-.117-2.456-2.065-6.383.954-7.309,4.634-1.2,13.901.97,19.728,3.218,10.468,4.161,21.228,7.815,31.477,12.363,9.417,4.131,10.919,12.175,11.03,21.487,1.414,16.07-.69,20.225-12.399,30.718-10.396,9.407-20.515,18.683-30.803,27.415l-.126.101ZM158.561,299.101c-4.89.405-8.035-6.178-10.52-9.881-1.761-3.224-3.806-6.24-1.961-9.516,1.83-3.011,5.819-4.795,9.312-5.386,6.641-1.096,16.503,2.567,17.361,9.432.23,5.896-8.582,14.581-14.006,15.336l-.188.017ZM267.298,245.476c-3.326,1.534-7.172-1.595-10.22-3.132-2.261-1.288-4.526-2.568-6.802-3.831-4.624-2.669-9.844-4.847-12.722-8.704-3.44-4.567-3.782-11.139-3.267-16.587.939-8.509,9.358-2.296,13.763-.293,2.876,1.429,5.805,2.791,8.838,3.86,8.781,2.795,14.965,2.303,14.098,13.024-.227,3.307-.537,7.334-1.064,10.473-.458,2.512-1.238,4.334-2.514,5.124l-.11.066ZM248.387,285.522c-4.2,1.669-8.949-4.566-10.668-8.512-1.231-2.645-5.862-13.922-.48-13.481,1.886.672,2.761,4.274,4.301,7.609.844,1.832,1.949,3.476,3.321,5.018,1.784,2.178,6.864,6.844,3.639,9.307l-.111.059ZM330.032,90.651c-.022,1.976-.437,4.7-.794,7.332-.608,3.774-.73,8.127-3.124,11.13-2.901,3.504-8.499,1.432-10.596-2.113-4.116-6.494,2.406-13.179,7.407-16.99,2.982-2.343,7.172-5.426,7.109.445v.196Z"/>
    <rect class="cls-1" y="0" width="400" height="400"/>
  </g>
</svg>