<?xml version="1.0" encoding="UTF-8"?>
<svg id="Layer_2" xmlns="http://www.w3.org/2000/svg" viewBox="0 0 400 400">
  <defs>
    <style>
      .cls-1 {
        fill: none;
      }

      .cls-2 {
        fill: #bcfb10;
      }
    </style>
  </defs>
  <g id="Layer_1_copy_2">
    <path class="cls-2" d="M399.997,109.587c-.158,15.632-5.232,29.653-15.064,41.654-3.19,3.895-6.811,7.148-10.148,9.958-2.811,16.59-11.253,30.59-25.116,41.685-4.463,18.716-10.927,36.106-19.222,51.707-6.432,12.095-14.021,23.2-22.569,33.011-7.327,8.4-17.358,19.148-30.064,27.727l-.116.074c-2.653,1.789-5.663,3.821-9.106,5.432-4.379,2.053-8.484,4.695-12.263,7.242-1.137.768-2.474,1.642-3.958,2.505-.705,4.158-3.063,8.695-8.727,12.716-11.779,8.348-24.79,10.327-36.275,12.074l-.589.095c-1.042.168-2.347.379-3.832.442-.379.011-.758.021-1.126.021-6.769,0-11.811-2.863-15.021-8.526-.168.011-.337.021-.505.032-2.116.116-4.305.242-6.611.242h-.421c-20.611-.137-40.98-3.348-60.528-9.527-17.99-5.695-35.643-13.653-52.475-23.653-9.158-5.453-17.979-11.264-26.232-17.295l-.537-.4c-7.484-5.474-15.221-11.137-22.306-17.864-8.927-8.495-14.421-19.674-16.306-33.211-2.621-18.821.589-37.58,9.811-57.338,4.779-10.242,10.927-19.8,18.274-28.422,11.558-13.537,24.032-23.506,38.138-30.495,7.084-3.505,14.906-6.105,23.222-7.727,3.99-.779,7.926-1.474,12.316-1.474h.411c8.948.021,17.864,2.211,26.527,6.505,1.874.937,3.6,1.937,5.274,2.926,2.021-2.737,4.126-5.263,6.358-7.621,6.927-7.358,15.306-13.558,24.916-18.453,3.074-1.558,5.842-3.947,9.284-7.99,4.242-4.99,9.221-8.674,13.527-11.621,8.8-6.032,18.411-10.148,28.559-12.263,4.895-1.011,10.748-2.053,17.064-2.053.968,0,1.926.021,2.863.074.168.011.337.011.505.011,1.074,0,2.042-.179,3.063-.579,5.474-2.105,11.306-3.663,17.337-4.611,4.99-.789,9.621-1.168,14.148-1.168,3.811,0,7.569.284,11.158.842.432.074.842.105,1.2.105.821,0,1.611-.105,2.937-1.358,13.137-12.569,28.674-18.948,46.18-18.948,1.242,0,2.505.042,3.758.105,15.4.8,28.748,6,39.696,15.453,5.421,4.684,9.969,10.411,13.895,17.506,5.969,10.779,8.811,21.39,8.695,32.453Z"/>
    <rect class="cls-1" width="400" height="400"/>
  </g>
</svg>