<?xml version="1.0" encoding="UTF-8"?>
<svg id="Layer_2" data-name="Layer 2" xmlns="http://www.w3.org/2000/svg" viewBox="0 0 496.117 60.311">
  <g id="Layer_1-2" data-name="Layer 1">
    <g>
      <path d="M0,.408h32.977v5.371H6.119v15.163h22.37v5.167H6.119v23.887H0V.408Z"/>
      <path d="M58.478,49.996v-5.668h-.136c-2.516,3.414-5.508,5.668-10.607,5.668-7.207,0-11.831-4.37-11.831-11.677V13.871h5.507v24.31c0,4.575,2.924,7.239,7.887,7.239,5.576,0,9.179-4.234,9.179-9.834V13.871h5.507v36.125h-5.507Z"/>
      <path d="M71.671.408h5.508v49.588h-5.508V.408Z"/>
      <path d="M85.066.408h5.508v49.588h-5.508V.408Z"/>
      <path d="M109.273.408h5.508v49.588h-5.508V.408Z"/>
      <path d="M122.465.408h5.508v6.8h-5.508V.408ZM122.465,13.871h5.508v36.125h-5.508V13.871Z"/>
      <path d="M133.209,37.601h5.644c.748,6.119,4.827,7.819,10.062,7.819,5.779,0,8.159-2.516,8.159-5.779,0-3.943-2.72-4.964-9.179-6.323-6.936-1.429-13.123-2.856-13.123-10.539,0-5.848,4.487-9.655,12.646-9.655,8.703,0,12.987,4.147,13.803,11.015h-5.644c-.544-4.623-3.06-6.663-8.295-6.663-5.031,0-7.071,2.244-7.071,5.031,0,3.808,3.399,4.556,9.451,5.779,7.071,1.428,12.986,2.992,12.986,11.083,0,7.071-5.779,10.675-13.87,10.675-9.655,0-15.026-4.555-15.57-12.442Z"/>
      <path d="M165.033,14.05h5.1V2.788h5.507v11.262h6.8v4.56h-6.8v23.214c0,2.488,1.292,3.316,3.536,3.316,1.088,0,2.312-.276,2.924-.483h.204v4.836c-1.292.276-2.788.483-4.42.483-4.487,0-7.751-1.866-7.751-6.909v-24.457h-5.1v-4.56Z"/>
      <path d="M196.992,31.481c0-10.199,6.527-18.494,16.999-18.494,10.538,0,16.93,8.295,16.93,18.494s-6.392,18.494-16.93,18.494c-10.472,0-16.999-8.296-16.999-18.494ZM225.277,31.481c0-7.751-3.808-13.938-11.286-13.938s-11.355,6.188-11.355,13.938,3.876,13.87,11.355,13.87,11.286-6.119,11.286-13.87Z"/>
      <path d="M233.509,13.871h4.827v-5.644c0-6.052,3.468-8.228,9.315-8.228,1.155,0,2.039.068,2.787.137v4.691c-.951-.068-1.224-.068-1.768-.068-3.535,0-4.827.884-4.827,3.74v5.371h6.527v4.487h-6.527v31.638h-5.508v-31.638h-4.827v-4.487Z"/>
      <path d="M266.555,13.871h5.508v4.963h.136c2.652-3.604,6.188-5.779,11.287-5.779,8.907,0,15.095,6.8,15.095,18.494,0,11.287-5.779,18.494-15.299,18.494-4.76,0-8.159-1.428-11.083-5.167h-.136v15.435h-5.508V13.871ZM292.937,31.617c0-7.887-3.332-13.871-9.995-13.871-7.684,0-11.219,6.256-11.219,13.871s3.06,13.803,11.15,13.803c6.731,0,10.063-5.848,10.063-13.803Z"/>
      <path d="M309.598,19.719h.136c2.108-3.4,5.779-6.256,10.471-6.256,1.021,0,1.564.136,2.244.408v5.304h-.204c-.815-.272-1.359-.341-2.447-.341-5.439,0-10.199,4.08-10.199,10.676v20.486h-5.508V13.871h5.508v5.848Z"/>
      <path d="M324.082,31.481c0-10.199,6.527-18.494,16.999-18.494,10.538,0,16.93,8.295,16.93,18.494s-6.392,18.494-16.93,18.494c-10.472,0-16.999-8.296-16.999-18.494ZM352.367,31.481c0-7.751-3.808-13.938-11.286-13.938s-11.355,6.188-11.355,13.938,3.876,13.87,11.355,13.87,11.286-6.119,11.286-13.87Z"/>
      <path d="M357.878,58.746v-4.487h.137c.68.136,1.292.204,1.903.204,2.38,0,3.604-1.02,3.604-3.399V13.871h5.508v37.464c0,6.527-3.604,7.684-8.091,7.684-1.225,0-2.176-.136-3.061-.272ZM363.521.408h5.508v6.8h-5.508V.408Z"/>
      <path d="M374.537,31.481c0-10.199,6.663-18.494,16.658-18.494,10.539,0,16.183,8.159,16.183,19.786h-27.197c.408,7.139,4.283,12.578,11.355,12.578,5.099,0,8.499-2.447,9.723-7.207h5.371c-1.632,7.547-7.139,11.831-15.094,11.831-10.743,0-16.999-8.296-16.999-18.494ZM380.316,28.625h21.146c-.34-7.003-3.944-11.286-10.268-11.286-6.527,0-10.062,4.896-10.879,11.286Z"/>
      <path d="M410.78,31.481c0-10.199,6.527-18.494,16.998-18.494,8.296,0,13.803,4.759,15.027,12.238h-5.576c-.815-4.759-4.147-7.683-9.451-7.683-7.479,0-11.354,6.188-11.354,13.938s3.876,13.87,11.354,13.87c5.712,0,9.111-3.264,9.588-8.703h5.439c-.748,8.432-6.256,13.327-15.027,13.327-10.471,0-16.998-8.296-16.998-18.494Z"/>
      <path d="M445.801,14.05h5.1V2.788h5.507v11.262h6.8v4.56h-6.8v23.214c0,2.488,1.292,3.316,3.536,3.316,1.088,0,2.312-.276,2.924-.483h.204v4.836c-1.292.276-2.788.483-4.42.483-4.487,0-7.751-1.866-7.751-6.909v-24.457h-5.1v-4.56Z"/>
      <path d="M466.677,37.601h5.644c.747,6.119,4.827,7.819,10.062,7.819,5.779,0,8.159-2.516,8.159-5.779,0-3.943-2.72-4.964-9.179-6.323-6.936-1.429-13.123-2.856-13.123-10.539,0-5.848,4.487-9.655,12.646-9.655,8.703,0,12.987,4.147,13.803,11.015h-5.644c-.544-4.623-3.06-6.663-8.295-6.663-5.031,0-7.071,2.244-7.071,5.031,0,3.808,3.399,4.556,9.451,5.779,7.071,1.428,12.986,2.992,12.986,11.083,0,7.071-5.779,10.675-13.87,10.675-9.655,0-15.026-4.555-15.57-12.442Z"/>
    </g>
  </g>
</svg>