<?xml version="1.0" encoding="UTF-8"?>
<svg id="Layer_2" xmlns="http://www.w3.org/2000/svg" viewBox="0 0 400 400">
  <defs>
    <style>
      .cls-1 {
        fill: none;
      }

      .cls-2 {
        fill: #bcfb10;
      }
    </style>
  </defs>
  <g id="Layer_1_copy_2">
    <path class="cls-2" d="M358.214,166.486c9.711,28.947,5.085,61.143-5.578,89.786-10.088,26.707-28.786,50.555-49.789,69.843-54.585,50.212-131.717,71.954-205.136,73.881-23.941.272-46.922-11.672-56.383-34.233-13.385-29.478,2.658-64.381,32.712-75.572,6.973-3.128,1.782-7.253-1.717-10.488-20.794-18.643-33.073-43.687-35.45-71.588-4.519-58.313,29.702-113.198,75.588-148.354,22.46-15.704,46.538-28.799,72.266-38.299C224.532,7.264,266.712-.511,308.897.026c56.544,3.451,75.449,75.518,25.655,104.374-2.469,1.398-5.268,2.54-7.592,3.605-3.32,1.601-6.121,3.098-3.699,6.516,2.596,3.356,6.722,6.254,9.69,9.429,11.917,11.487,20.118,26.56,25.199,42.34l.063.196Z"/>
    <rect class="cls-1" width="400" height="400"/>
  </g>
</svg>