<?xml version="1.0" encoding="UTF-8"?>
<svg id="Layer_2" xmlns="http://www.w3.org/2000/svg" viewBox="0 0 400 400">
  <defs>
    <style>
      .cls-1 {
        fill: none;
      }

      .cls-2 {
        fill: #bcfb10;
      }
    </style>
  </defs>
  <g id="Layer_1_copy_2">
    <path class="cls-2" d="M396.37,283.092c-9.592,29.817-31.725,60.3-64.104,64.691-17.894,2.676-31.074-.72-45.872-10.673-3.814-2.314-7.73-4.364-12.009-5.134-4.708-.93-9.666-.074-14.727-.027-3.023.086-6.083.055-9.052.579-5.613.9-9.554,4.319-13.863,8.384-9.987,8.792-18.487,19.66-29.974,26.628-15.021,8.974-26.589,6.673-40.658-2.374-7.959-4.894-17.389-9.116-23.191-16.318-3.384-4.473-6.196-9.508-11.494-11.972-4.291-2.187-9.302-3.35-13.161-6.399-5.069-3.794-7.585-9.506-11.194-14.365-3.974-5.64-9.595-10.806-10.285-18.024-.556-4.121.869-8.454.261-12.513-.44-3.909-3.655-7.049-6.616-9.545-2.976-2.502-5.77-5.013-8.937-7.011-3.957-2.549-8.423-4.139-12.824-5.824-9.422-3.6-17.163-8.768-23.283-15.572-2.935-3.25-5.66-6.727-8.908-9.624-5.501-4.853-13.014-8.493-18.365-14.14C3.488,209.583-.716,187.961.096,168.295c.658-16.379,4.472-31.147,10.549-46.38,15.99-39.744,42.574-73.481,78.781-89.446,15.831-6.924,34.474-8.326,49.887.269,10.937,5.878,23.762,7.406,35.222,11.896,6.081,2.436,11.756,5.793,16.891,9.866,5.257,4.15,10.679,8.613,17.609,8.995,5.993.44,12.329-.398,18.1,1.705,12.015,3.976,18.727,17.904,33.056,11.654,8.664-3.944,15.66-10.088,25.749-6.59,10.398,3.319,16.236,9.363,21.713,18.482,4.46,6.872,11.364,13.098,11.208,21.915.324,8.86-4.978,17.178-6.199,25.773-1.625,9.21,2.37,18.545,9.342,24.588,6.174,5.582,13.866,9.124,19.015,15.402,3.99,4.558,6.064,10.486,9.481,15.44,3.02,4.55,7.329,7.863,11.944,10.718,9.548,6.242,19.1,12.453,25.406,22.062,11.813,19.4,15.706,35.796,8.584,58.24l-.064.208Z"/>
    <rect class="cls-1" x="0" width="400" height="400"/>
  </g>
</svg>