<?xml version="1.0" encoding="UTF-8"?>
<svg id="Layer_2" xmlns="http://www.w3.org/2000/svg" viewBox="0 0 400 400">
  <defs>
    <style>
      .cls-1 {
        fill: none;
      }

      .cls-2 {
        fill: #bcfb10;
      }
    </style>
  </defs>
  <g id="Layer_1_copy_2">
    <path class="cls-2" d="M377.317,17.228c-1.635-12.449-15.784-12.647-25.646-13.41-15.684-1.2-31.025-2.846-46.725-3.773-7.663-.396-16.459,1.754-19.497,9.519-1.751,3.854-1.758,8.619-2.885,12.773-1.039,4.12-3.122,7.697-5.927,10.935-17.604,17.973-24.427,33.748-28.714,58.379-.455,3.376-2.106,9.533-4.591,10.735-5.6,1.438-4.06-14.271-4.184-17.753.853-24.619,1.8-31.09-24.92-35.819-13.098-2.812-26.368-5.612-39.988-8.563-7.278-1.437-14.335-3.517-21.661-3.985-8.201-.592-18.704,1.72-21.559,10.392-1.844,5.904-.608,12.699-2.228,18.761-1.859,6.985-2.534,14.58-1.986,21.966-.117,9.01,1.542,17.729,3.1,26.542.792,9.268.654,18.569,2.532,27.721,1.003,5.379,1.656,11.024-.404,16.215-2.787,6.822-6.868,13.674-1.301,20.425,11.436,11.523,12.635,9.661,13.741,27.362,1.997,15.761.247,19.584-13.522,27.841-26.615,17.156-53.177,34.22-79.839,51.34-4.815,2.999-9.612,5.82-14.469,8.688-4.386,2.621-8.835,5.079-11.584,9.044-7.196,11.353,1.804,24.588,9.258,33.363,14.444,17.471,28.898,34.828,43.317,52.343,16.394,21.18,24.429,9.855,40.374-4.042,17.533-15.683,35.472-30.895,53.168-46.323,18.853-16.311,37.851-32.836,56.816-49.267,7.156-6.565,16.378-10.759,23.687-16.489,8.302-6.895,16.59-13.912,24.827-20.972,4.545-4.101,9.744-7.19,14.916-10.411,8.212-4.368,10.676-13.813,16.302-20.552,6.382-6.75,13.819-12.74,21.359-17.907,9.257-5.786,18.182-12.357,25.874-20.163,5.309-5.469,7.16-13.097,7.977-20.483,1.535-11.075,2.327-22.073,4.252-32.966.886-4.153,2.571-8.052,3.811-12.092,1.514-4.686,1.429-9.515.966-14.345-.553-6.495-.331-12.742-.604-19.486-.158-4.501-.209-9.04.326-13.527,1.403-10.83,2.758-21.639,4.217-32.564.72-6.364,2.262-12.917,1.441-19.271l-.029-.184ZM191.08,268.462c-21.539,17.639-43.62,35.63-65.244,53.308-7.887,6.97-16.864,11.164-27.194,11.331-10.19,1.073-23.682-7.131-17.104-18.298,4.624-6.984,12.544-11.137,19.215-16.008,25.743-17.837,51.036-35.28,76.733-53.069,6.088-3.617,21.8-18.184,24.677-5.136,1.918,13.261-.224,19.839-10.922,27.742l-.159.13ZM303.007,176.766c-.142,1.272-1.239,2.64-2.866,4.078-1.937,1.654-4.211,3.606-6.518,4.694-1.724.821-3.84,1.225-5.259-.233-2.96-3.268-2.848-13.927,3.305-14.891,3.588-.464,11.251,2.119,11.351,6.217l-.013.136Z"/>
    <rect class="cls-1" width="400" height="400"/>
  </g>
</svg>