<?xml version="1.0" encoding="UTF-8"?>
<svg id="Layer_2" xmlns="http://www.w3.org/2000/svg" viewBox="0 0 400 400">
  <defs>
    <style>
      .cls-1 {
        fill: none;
      }

      .cls-2 {
        fill: #bcfb10;
      }
    </style>
  </defs>
  <g id="Layer_1_copy_2">
    <path class="cls-2" d="M326.178,46.89c-2.759,42.453-40.92,36.094-23.444,53.59,9.049,9.76,15.649,21.505,18.995,34.353,5.338,22.562,2.481,46.615-7.177,67.665-6.579,14.277-15.744,27.449-26.292,39.002-6.33,5.923-7.147,11.949-2.872,19.36,9.141,17.979,18.179,35.822,27.422,53.764,3.538,6.968,7.571,14.164,8.025,22.109-.004,14.559-.968,29.117-1.064,43.81-.078,12.9-5.242,19.858-18.854,19.421-10.994.108-26.79-.061-36.835.001-34.662-.009-78.111.007-113.503-.01-16.168.029-32.637.016-49.162.007-4.328-.019-8.829.067-13.024-.929-11.806-2.402-12.096-15.901-12.331-25.671-.304-6.712-.452-13.486-1.048-20.186-.517-6.077-1.84-11.996-.932-17.905,2.007-10.816,9.175-19.65,14.033-29.327,8.833-14.977-7.303-18.863-9.621-38.819-3.388-28.361,21.268-38.255,19.939-49.706-1.178-5.765-7.413-10.877-10.477-16.537-6.792-10.966-11.166-23.349-12.483-36.181-5.953-60.691,40.005-111.379,91.354-136.724C197.941,12.256,232.784,3.426,267.412.503c10.067-.783,20.531-1.121,30.091,2.627,17.725,6.724,29.536,24.692,28.682,43.556l-.007.204Z"/>
    <rect class="cls-1" width="400" height="400"/>
  </g>
</svg>