<?xml version="1.0" encoding="UTF-8"?>
<svg id="Layer_2" xmlns="http://www.w3.org/2000/svg" viewBox="0 0 400 400">
  <defs>
    <style>
      .cls-1 {
        fill: none;
      }

      .cls-2 {
        fill: #bcfb10;
      }
    </style>
  </defs>
  <g id="Layer_1_copy_2">
    <path class="cls-2" d="M334.252,316.107c-1.237,4.678-4.581,8.501-8.53,11.203-3.272,2.358-7.62,3.86-9.179,7.782-1.703,4.87.757,9.724.034,15.116-.641,7.188-6.875,13.59-14.259,13.35-3.35-.063-6.624-1.268-9.718-2.546-2.703-1.082-5.576-2.26-8.442-1.324-3.981,1.372-6.389,4.799-10.4,7.707-5.071,3.504-11.38,5.054-17.472,5.356-4.224.663-13.387-2.704-13.336,3.596-.064,1.493.223,3.466.403,5.618.443,4.255-.358,8.754-2.825,12.247-6.658,9.372-17.585,5.632-26.006.87-4.747-2.711-9.727-4.557-15.048-3.475-4.815,1.079-9.534,3.664-14.626,3.471-7.944.088-16.717-4.094-19.843-11.619-3.573-8.062.777-17.205,7.819-21.763,5.428-3.703,12.212-5.689,15.764-11.614,4.067-6.418,7.678-11.947,16.206-12.015,4.309-.166,8.91.925,13.105.006,6.545-1.694,12.008-7.126,15.072-13.019,6.227-12.526,1.195-27.106-.693-40.182-1.096-7.017-3.742-13.635-6.897-19.96-3.425-7.236-6.593-14.565-10.369-21.626-17.734-33.323-35.38-66.746-52.977-100.094-9.596-17.749-18.717-36.063-28.675-53.724-3.525-5.486-8.642-9.347-12.848-15.016-3.591-4.814-6.825-10.188-12.181-13.231-4.41-2.566-9.34-4.118-13.92-6.34-4.891-2.272-9.191-5.327-13.854-8.268-11.736-6.987-18.843-15.432-13.689-29.851,3.79-10.778,15.313-19.65,27.047-15.879,7.994,2.565,14.613,7.933,21.607,12.357,6.783,4.805,12.255,11.103,19,16.012,10.009,6.422,17.181,16.393,21.276,27.561,1.974,6.107,2.448,12.529,5.019,18.519,8.555,17.298,18.276,34.485,27.078,51.54,22.796,42.283,44.051,85.481,68.298,126.765,7.684,12.489,8.655,24.948,9.555,39.263.321,2.717.596,6.113,2.984,7.614,2.815,1.554,6.468.778,9.618,1.001,11.81,1.213,13.241,1.591,23.656-4.534,13.873-7.875,36.587.732,32.292,18.94l-.049.187Z"/>
    <rect class="cls-1" y="0" width="400" height="400"/>
  </g>
</svg>