<?xml version="1.0" encoding="UTF-8"?>
<svg id="Layer_2" xmlns="http://www.w3.org/2000/svg" viewBox="0 0 400 400">
  <defs>
    <style>
      .cls-1 {
        fill: none;
      }

      .cls-2 {
        fill: #bcfb10;
      }
    </style>
  </defs>
  <g id="Layer_1_copy_2">
    <path class="cls-2" d="M387.13,66.358c-2.712,12.347-7.939,24.558-9.102,37.352-1.049,21.49-1.048,42.806-1.607,64.287.09,13.875.474,27.167-6.382,39.726-29.249,59.013-58.764,118.114-87.866,177.017-3.148,6.386-7.486,13.978-14.878,15.101-5.86.923-12.254-2.228-15.083-7.348-3.491-6.232-1.677-13.693-.165-20.299,3.018-10.848-.879-19.128-6.209-28.593-1.724-3.306-3.704-6.651-6.65-8.977-3.47-2.899-8.697-4.117-13.353-4.74-6.037-.822-11.923-1.781-17.369-2.808-28.539-5.33-52.002-12.641-81.194-25.201-8.491-3.632-17.05-7.705-25.117-11.645-5.442-2.634-11.383-4.514-17.364-3.418-11.274,1.522-17.449,13.912-27.062,17.978-11.787,4.721-20.91-6.805-19.526-18.084.343-4.398,1.481-8.652,4.126-13.209,1.521-2.669,3.523-5.454,4.548-8.295,2.796-6.531-3.85-10.517-8.436-13.798-9.558-7.522-22.587-13.225-25.49-25.734-4.377-18.726,11.31-27.361,23.995-37.058,16.631-12.581,33.485-25.396,50.694-37.659,10.298-6.921,18.858-15.322,22.662-27.479,2.834-8.139,4.527-17.225,6.437-25.624,5.656-25.662,11.272-51.379,17.086-77.273,2.587-12.683,7.793-22.609,22.781-20.22,20.09,3.903,39.734,9.847,59.281,14.39,47.697,11.951,97.852,19.056,146.825,25.947,6.142,1.03,12.541,1.698,17.768,5.327,6.444,4.378,8.498,12.829,6.691,20.139l-.039.197Z"/>
    <rect class="cls-1" width="400" height="400"/>
  </g>
</svg>